<svg width="48" height="48" viewBox="0 0 48 48" fill="none" xmlns="http://www.w3.org/2000/svg">
<rect width="48" height="48" rx="4" fill="#F6F6F6"/>
<g clip-path="url(#clip0_2907_566)">
<path d="M12.875 4C8 4 4 8 4 12.875V35.125C4 40 8 44 12.875 44H35.125C40 44 44 40 44 35.125V12.875C44 8 40 4 35.125 4H12.875ZM23.75 8.25C27.625 8.25 31.125 9.75 33.875 12.625C35.875 14.75 37 17 37.625 20C37.875 21 37.875 23.625 37.625 24.75C37 28.25 35.125 31.375 32.25 33.625C31.25 34.375 28.75 35.75 28.375 35.75C28.25 35.75 28.25 35.625 28.25 35C28.375 34 28.5 33.75 29 33.625C29.875 33.25 31.375 32.125 32.375 31.25C34 29.625 35.125 27.625 35.75 25.375C36.125 24 36 21 35.625 19.5C34.375 15 30.75 11.5 26.25 10.625C25 10.375 22.625 10.375 21.25 10.625C16.75 11.625 13 15.25 11.75 19.875C11.5 21.125 11.5 24.125 11.75 25.375C12.5 28.375 14.5 31.25 17.125 32.875C17.625 33.25 18.25 33.5 18.5 33.625C19 33.875 19.125 34.125 19.25 35C19.375 35.625 19.25 35.75 19.125 35.75C19 35.75 18.375 35.5 17.625 35.125H17.5C13.375 33.125 10.75 29.625 9.75 25.125C9.5 24 9.5 21.125 9.75 20C10.5 17 11.625 14.75 13.5 12.75C16.25 9.75 19.875 8.25 23.75 8.25ZM24 13C24.625 13 25.375 13.125 25.875 13.125C30.5 14.125 33.75 18.75 33.125 23.375C32.875 25.25 32.25 26.75 31.125 28.125C30.625 28.875 29.25 30 29 30C29 30 28.875 29.5 28.875 29V28L29.625 27.125C32.25 24 32 19.625 29.25 16.75C28.125 15.625 26.875 15 25.25 14.625C24.125 14.375 24 14.375 22.875 14.625C21.125 14.875 19.875 15.5 18.625 16.75C15.75 19.625 15.625 24 18.25 27.125L19 28V29C19 29.5 19 30 18.875 30C18.875 30 18.5 29.75 18 29.375C16.625 28.25 15.375 26.25 14.875 24.375C14.625 23.25 14.625 21 14.875 19.875C15.75 16.75 18 14.375 21.25 13.125C21.625 13.125 22.875 13 24 13ZM23.75 18C24.25 18 24.75 18.125 25.125 18.25C25.875 18.625 26.625 19.5 26.875 20.375C27.625 23 24.875 25.25 22.375 24.125C21.125 23.625 20.5 22.5 20.5 21.125C20.5 19.875 21.125 18.875 22.375 18.25C22.75 18 23.25 18 23.75 18ZM23.75 25.875C25.375 25.875 26.625 26.5 27 27.5C27.375 28.25 27.25 30.75 26.625 34.625C26.25 37.375 26 38.125 25.5 38.5C24.75 39.125 23.75 39.375 22.75 39C21.5 38.625 21.25 38 20.75 34.625C20.125 30.625 20 28.25 20.375 27.5C20.875 26.375 22.125 25.875 23.75 25.875Z" fill="black"/>
</g>
<defs>
<clipPath id="clip0_2907_566">
<rect width="40" height="40" fill="white" transform="translate(4 4)"/>
</clipPath>
</defs>
</svg>
