<svg width="24" height="25" viewBox="0 0 24 25" fill="none" xmlns="http://www.w3.org/2000/svg">
<g clip-path="url(#clip0_716_1022)">
<path d="M21.5 7.88477V7.38477H21H7.5H7V7.88477V21.3848V21.8848H7.5H21H21.5V21.3848V7.88477ZM21.7071 7.17766L22.0607 6.82411L21.7071 7.17766C21.8946 7.3652 22 7.61955 22 7.88477V21.3848C22 21.65 21.8946 21.9043 21.7071 22.0919C21.5196 22.2794 21.2652 22.3848 21 22.3848H7.5C7.23478 22.3848 6.98043 22.2794 6.79289 22.0919L6.43934 22.4454L6.79289 22.0919C6.60536 21.9043 6.5 21.65 6.5 21.3848V7.88477C6.5 7.61955 6.60536 7.3652 6.79289 7.17766C6.98043 6.99012 7.23478 6.88477 7.5 6.88477H21C21.2652 6.88477 21.5196 6.99012 21.7071 7.17766Z" fill="#530E25" stroke="#530E25"/>
<path d="M2.5 3.38477V13.3848H2V3.38477C2 3.11955 2.10536 2.8652 2.29289 2.67766C2.48043 2.49012 2.73478 2.38477 3 2.38477H13V2.88477H3H2.5V3.38477Z" fill="#530E25" stroke="#530E25"/>
</g>
<defs>
<clipPath id="clip0_716_1022">
<rect width="24" height="24" fill="white" transform="translate(0 0.384766)"/>
</clipPath>
</defs>
</svg>
