<svg width="48" height="48" viewBox="0 0 48 48" fill="none" xmlns="http://www.w3.org/2000/svg">
<rect width="48" height="48" rx="4" fill="#F6F6F6"/>
<g clip-path="url(#clip0_2907_628)">
<path d="M6.84424 27.7285C5.5083 27.7285 4.42236 26.6426 4.42236 25.3066V22.5723C4.42236 21.2363 5.5083 20.1504 6.84424 20.1504C8.18018 20.1504 9.26611 21.2363 9.26611 22.5723V25.3066C9.27393 26.6426 8.18799 27.7285 6.84424 27.7285Z" fill="#0066D9"/>
<path d="M42.0005 27.7285C40.6646 27.7285 39.5786 26.6426 39.5786 25.3066V22.5723C39.5786 21.2363 40.6646 20.1504 42.0005 20.1504C43.3364 20.1504 44.4224 21.2363 44.4224 22.5723V25.3066C44.4224 26.6426 43.3364 27.7285 42.0005 27.7285Z" fill="#4285F4"/>
<path d="M15.6333 35.9316C14.2974 35.9316 13.2114 34.8457 13.2114 33.5098V30.7754C13.2114 29.4395 14.2974 28.3535 15.6333 28.3535C16.9692 28.3535 18.0552 29.4395 18.0552 30.7754V33.5098C18.063 34.8457 16.9771 35.9316 15.6333 35.9316ZM15.6333 25.7285C14.2974 25.7285 13.2114 24.6426 13.2114 23.3066V14.3613C13.2114 13.0254 14.2974 11.9395 15.6333 11.9395C16.9692 11.9395 18.0552 13.0254 18.0552 14.3613V23.3066C18.063 24.6426 16.9771 25.7285 15.6333 25.7285Z" fill="#EA4335"/>
<path d="M33.2114 35.9316C31.8755 35.9316 30.7896 34.8457 30.7896 33.5098V24.5566C30.7896 23.2207 31.8755 22.1348 33.2114 22.1348C34.5474 22.1348 35.6333 23.2207 35.6333 24.5566V33.502C35.6333 34.8457 34.5474 35.9316 33.2114 35.9316ZM33.2114 19.5176C31.8755 19.5176 30.7896 18.4316 30.7896 17.0957V14.3613C30.7896 13.0254 31.8755 11.9395 33.2114 11.9395C34.5474 11.9395 35.6333 13.0254 35.6333 14.3613V17.0957C35.6333 18.4316 34.5474 19.5176 33.2114 19.5176Z" fill="#34A853"/>
<path d="M24.4224 43.9316C23.0864 43.9316 22.0005 42.8457 22.0005 41.5098V38.7754C22.0005 37.4395 23.0864 36.3535 24.4224 36.3535C25.7583 36.3535 26.8442 37.4395 26.8442 38.7754V41.5098C26.8442 42.8457 25.7583 43.9316 24.4224 43.9316ZM24.4224 33.6504C23.0864 33.6504 22.0005 32.5645 22.0005 31.2285V16.6348C22.0005 15.2988 23.0864 14.2129 24.4224 14.2129C25.7583 14.2129 26.8442 15.2988 26.8442 16.6348V31.2207C26.8442 32.5645 25.7583 33.6504 24.4224 33.6504ZM24.4224 11.5176C23.0864 11.5176 22.0005 10.4316 22.0005 9.0957V6.35352C22.0005 5.01758 23.0864 3.93164 24.4224 3.93164C25.7583 3.93164 26.8442 5.01758 26.8442 6.35352V9.08789C26.8442 10.4316 25.7583 11.5176 24.4224 11.5176Z" fill="#FAB908"/>
</g>
<defs>
<clipPath id="clip0_2907_628">
<rect width="40" height="40" fill="white" transform="translate(4.42236 3.93164)"/>
</clipPath>
</defs>
</svg>
