<svg width="25" height="25" viewBox="0 0 25 25" fill="none" xmlns="http://www.w3.org/2000/svg">
<mask id="mask0_291_1191" style="mask-type:alpha" maskUnits="userSpaceOnUse" x="0" y="0" width="25" height="25">
<rect x="0.5" y="0.5" width="24" height="24" fill="#D9D9D9"/>
</mask>
<g mask="url(#mask0_291_1191)">
<path d="M12.5 23.5V21.5H19.5V20.5H15.5V12.5H19.5V11.5C19.5 9.56667 18.8167 7.91667 17.45 6.55C16.0833 5.18333 14.4333 4.5 12.5 4.5C10.5667 4.5 8.91667 5.18333 7.55 6.55C6.18333 7.91667 5.5 9.56667 5.5 11.5V12.5H9.5V20.5H5.5C4.95 20.5 4.47917 20.3042 4.0875 19.9125C3.69583 19.5208 3.5 19.05 3.5 18.5V11.5C3.5 10.2667 3.7375 9.10417 4.2125 8.0125C4.6875 6.92083 5.33333 5.96667 6.15 5.15C6.96667 4.33333 7.92083 3.6875 9.0125 3.2125C10.1042 2.7375 11.2667 2.5 12.5 2.5C13.7333 2.5 14.8958 2.7375 15.9875 3.2125C17.0792 3.6875 18.0333 4.33333 18.85 5.15C19.6667 5.96667 20.3125 6.92083 20.7875 8.0125C21.2625 9.10417 21.5 10.2667 21.5 11.5V21.5C21.5 22.05 21.3042 22.5208 20.9125 22.9125C20.5208 23.3042 20.05 23.5 19.5 23.5H12.5ZM5.5 18.5H7.5V14.5H5.5V18.5ZM17.5 18.5H19.5V14.5H17.5V18.5Z" fill="white"/>
</g>
</svg>
