<svg width="48" height="53" viewBox="0 0 48 53" fill="none" xmlns="http://www.w3.org/2000/svg">
<g clip-path="url(#clip0_179_129)">
<path d="M0 48.2516H0.803505V49.8206H2.19253V48.2516H2.99097V52.4111H2.19253V50.5887H0.803505V52.4111H0V48.2516Z" fill="white"/>
<path d="M3.88574 48.2516H4.6715V52.4111H3.88574V48.2516Z" fill="white"/>
<path d="M7.74606 48.817L7.158 49.3366C7.0955 49.2196 7.00575 49.1194 6.89634 49.0444C6.78693 48.9694 6.66106 48.9218 6.52939 48.9057C6.43754 48.9018 6.34741 48.9316 6.27592 48.9894C6.24547 49.0105 6.22042 49.0384 6.20281 49.071C6.18519 49.1036 6.1755 49.1399 6.17453 49.1769C6.1758 49.2489 6.20075 49.3183 6.2455 49.3746C6.4262 49.5663 6.62016 49.745 6.82595 49.9095C7.13012 50.1629 7.31262 50.3201 7.37599 50.3885C7.51615 50.5221 7.63194 50.6791 7.71817 50.8524C7.78598 51.0047 7.82055 51.1698 7.81956 51.3365C7.82387 51.4947 7.79446 51.6521 7.73327 51.798C7.67209 51.944 7.58054 52.0753 7.4647 52.1831C7.21353 52.4123 6.88176 52.5326 6.54207 52.5177C6.26763 52.5236 5.99764 52.4477 5.76644 52.2997C5.523 52.1239 5.32916 51.8882 5.20374 51.6153L5.86783 51.2123C6.06807 51.5799 6.29873 51.7649 6.55981 51.7649C6.68465 51.7687 6.8065 51.7263 6.902 51.6458C6.94467 51.6139 6.97944 51.5726 7.00362 51.5251C7.02779 51.4777 7.04072 51.4253 7.04141 51.372C7.03815 51.2682 7.00072 51.1684 6.93495 51.0881C6.79736 50.9281 6.64266 50.7836 6.47363 50.6572C6.14471 50.4117 5.8498 50.1236 5.59662 49.8005C5.47251 49.6243 5.40369 49.4152 5.39891 49.1997C5.39775 49.0596 5.42656 48.9209 5.48339 48.7928C5.54022 48.6647 5.62376 48.5502 5.72842 48.4571C5.94869 48.2514 6.24082 48.1404 6.54207 48.1478C6.74853 48.1475 6.95203 48.197 7.13519 48.2923C7.36936 48.4281 7.57645 48.606 7.74606 48.817Z" fill="white"/>
<path d="M14.0347 48.931L13.4771 49.4835C13.323 49.3077 13.1332 49.1668 12.9203 49.0702C12.7075 48.9735 12.4764 48.9235 12.2427 48.9233C12.0526 48.918 11.8635 48.9512 11.6867 49.0209C11.5098 49.0906 11.3489 49.1954 11.2136 49.3289C11.0797 49.4565 10.9736 49.6104 10.9021 49.781C10.8305 49.9515 10.7951 50.135 10.7979 50.32C10.7955 50.5096 10.8326 50.6977 10.9068 50.8722C10.981 51.0467 11.0906 51.2039 11.2288 51.3339C11.3683 51.4719 11.5343 51.5803 11.7168 51.6526C11.8993 51.7249 12.0946 51.7596 12.2908 51.7546C12.533 51.7622 12.7725 51.7026 12.9828 51.5823C13.1826 51.4512 13.3395 51.2644 13.434 51.0449H12.2325V50.3022H14.3262V50.4771C14.3265 50.8419 14.2285 51.2001 14.0423 51.5138C13.8696 51.8236 13.6165 52.081 13.3098 52.259C12.9869 52.4354 12.623 52.5228 12.2553 52.5125C11.8531 52.5197 11.4558 52.4228 11.102 52.2312C10.7657 52.0447 10.489 51.7671 10.3036 51.4302C10.1072 51.0887 10.0049 50.7012 10.007 50.3073C9.99979 49.7772 10.1946 49.2643 10.552 48.8727C10.7621 48.6349 11.0222 48.4464 11.3135 48.3206C11.6049 48.1949 11.9204 48.135 12.2376 48.1452C12.5856 48.1423 12.9306 48.2105 13.2515 48.3454C13.5508 48.4833 13.8177 48.6828 14.0347 48.931Z" fill="white"/>
<path d="M15.1119 48.2516H15.9509C16.2827 48.2329 16.6152 48.275 16.9319 48.3758C17.128 48.4589 17.2929 48.6017 17.4033 48.7839C17.5248 48.9884 17.5863 49.2229 17.5808 49.4606C17.5894 49.704 17.5202 49.9438 17.383 50.145C17.234 50.3419 17.0277 50.488 16.7925 50.5633L17.7759 52.4111H16.9116L15.9763 50.6368H15.9028V52.4111H15.1119V48.2516ZM15.9028 49.8789H16.1562C16.3311 49.8923 16.5062 49.8581 16.6632 49.78C16.7127 49.7415 16.7516 49.6911 16.7764 49.6335C16.8012 49.5759 16.8111 49.5129 16.8051 49.4505C16.8095 49.368 16.7873 49.2862 16.7416 49.2173C16.696 49.1483 16.6294 49.0959 16.5517 49.0678C16.4101 49.0321 16.264 49.0176 16.1182 49.0247H15.9002L15.9028 49.8789Z" fill="white"/>
<path d="M18.4198 48.2516H20.7011V49.0273H19.2056V49.7877H20.6909V50.5481H19.2056V51.6406H20.6909V52.4187H18.4097L18.4198 48.2516Z" fill="white"/>
<path d="M22.6985 48.2516H23.4994L25.0938 52.4111H24.2776L23.9532 51.5544H22.2549L21.9152 52.4111H21.094L22.6985 48.2516ZM23.104 49.3542L22.5591 50.7838H23.6718L23.104 49.3542Z" fill="white"/>
<path d="M25.3015 48.2516H27.6005V49.0323H26.8401V52.4111H26.0391V49.0323H25.3015V48.2516Z" fill="white"/>
<path d="M29.7627 48.2516H30.5662V49.8206H31.9527V48.2516H32.7537V52.4111H31.9527V50.5887H30.5662V52.4111H29.7627V48.2516Z" fill="white"/>
<path d="M35.6685 48.1477C35.9523 48.1441 36.2338 48.199 36.4954 48.3089C36.757 48.4187 36.9933 48.5813 37.1894 48.7864C37.3955 48.9895 37.558 49.2324 37.667 49.5005C37.7759 49.7685 37.829 50.056 37.8231 50.3453C37.8289 50.6312 37.7764 50.9153 37.6688 51.1803C37.5612 51.4453 37.4006 51.6855 37.197 51.8864C36.9942 52.088 36.7535 52.2475 36.4888 52.3558C36.2242 52.4641 35.9407 52.519 35.6547 52.5174C35.3688 52.5157 35.0859 52.4576 34.8225 52.3462C34.5591 52.2349 34.3203 52.0726 34.1198 51.8686C33.8169 51.5622 33.6114 51.1731 33.5291 50.7502C33.4467 50.3273 33.4912 49.8895 33.657 49.4918C33.8228 49.0942 34.1024 48.7544 34.4608 48.5152C34.8192 48.2761 35.2402 48.1482 35.6711 48.1477H35.6685ZM35.6685 48.9233C35.4878 48.919 35.3081 48.9524 35.141 49.0214C34.9739 49.0903 34.8229 49.1933 34.6978 49.3238C34.5682 49.4582 34.4667 49.617 34.3992 49.7911C34.3317 49.9652 34.2997 50.151 34.3049 50.3377C34.2962 50.5453 34.3364 50.7521 34.4223 50.9414C34.5081 51.1307 34.6372 51.2973 34.7991 51.4276C35.0474 51.6339 35.3609 51.7453 35.6838 51.7419C35.8629 51.7448 36.0407 51.7102 36.2057 51.6404C36.3707 51.5706 36.5193 51.467 36.6419 51.3363C36.8982 51.0645 37.0409 50.7049 37.0409 50.3313C37.0409 49.9577 36.8982 49.5982 36.6419 49.3263C36.5156 49.1936 36.3627 49.0892 36.1932 49.0197C36.0237 48.9503 35.8415 48.9174 35.6584 48.9233H35.6685Z" fill="white"/>
<path d="M38.5404 48.2516H39.3338V50.941C39.3244 51.1072 39.345 51.2738 39.3946 51.4327C39.4344 51.5294 39.5047 51.6104 39.5948 51.6634C39.6977 51.7235 39.8154 51.7533 39.9345 51.7496C40.0613 51.7538 40.1866 51.7203 40.2944 51.6532C40.3906 51.595 40.464 51.5055 40.5023 51.3998C40.5522 51.2149 40.5719 51.0232 40.5606 50.832V48.2516H41.3565V50.7331C41.3675 51.0247 41.3437 51.3166 41.2855 51.6025C41.2313 51.7772 41.1386 51.9374 41.0143 52.0715C40.8893 52.2176 40.7323 52.3329 40.5555 52.4086C40.3626 52.4841 40.1568 52.5211 39.9497 52.5176C39.6734 52.5235 39.4011 52.4515 39.1639 52.3097C38.9545 52.1889 38.7872 52.0067 38.6849 51.7876C38.5681 51.449 38.519 51.0907 38.5404 50.7331V48.2516Z" fill="white"/>
<path d="M44.4564 48.8169L43.8709 49.3365C43.8084 49.2195 43.7187 49.1193 43.6093 49.0443C43.4998 48.9693 43.374 48.9217 43.2423 48.9056C43.1506 48.9027 43.0608 48.9323 42.9888 48.9893C42.9598 49.0116 42.9359 49.0399 42.9189 49.0722C42.9018 49.1046 42.8919 49.1403 42.89 49.1769C42.8913 49.2488 42.9162 49.3183 42.961 49.3746C43.1417 49.5662 43.3356 49.745 43.5414 49.9094C43.8456 50.1629 44.0281 50.32 44.0914 50.3885C44.2316 50.522 44.3474 50.679 44.4336 50.8523C44.5006 51.0048 44.5343 51.1699 44.5325 51.3364C44.5373 51.4945 44.5083 51.6517 44.4476 51.7977C44.3868 51.9437 44.2957 52.0751 44.1802 52.183C43.9287 52.4118 43.5971 52.532 43.2575 52.5176C42.9831 52.5235 42.7131 52.4476 42.4819 52.2996C42.2385 52.1238 42.0446 51.8881 41.9192 51.6153L42.5833 51.2122C42.7835 51.5798 43.0142 51.7648 43.2753 51.7648C43.4001 51.7686 43.522 51.7262 43.6174 51.6457C43.6597 51.6134 43.6942 51.5721 43.7183 51.5247C43.7424 51.4773 43.7556 51.4251 43.7569 51.3719C43.7536 51.2682 43.7162 51.1684 43.6504 51.088C43.5128 50.928 43.3581 50.7835 43.1891 50.6571C42.8602 50.4116 42.5653 50.1235 42.3121 49.8004C42.188 49.6242 42.1191 49.4151 42.1144 49.1997C42.1132 49.0596 42.142 48.9208 42.1988 48.7927C42.2557 48.6646 42.3392 48.5502 42.4439 48.457C42.6635 48.2504 42.9561 48.1392 43.2575 48.1478C43.464 48.1474 43.6675 48.197 43.8506 48.2922C44.0835 48.4278 44.289 48.6058 44.4564 48.8169Z" fill="white"/>
<path d="M45.2903 48.2516H47.5589V49.0273H46.076V49.7877H47.5589V50.5481H46.076V51.6406H47.5589V52.4187H45.2903V48.2516Z" fill="white"/>
<path d="M8.50394 10.6009C8.50394 10.6009 4.26589 13.8783 4.19492 18.0124C4.14169 21.3076 4.23547 29.1019 4.2735 31.8064C4.28141 33.1743 4.59126 34.5237 5.18092 35.758C6.35703 38.166 9.4722 40.9719 15.0308 39.446C17.7582 38.7211 28.2114 32.1131 30.8906 28.0195C33.5698 23.9259 33.1515 19.5409 29.6232 18.2608C26.0949 16.9808 23.4765 20.2531 23.4765 20.2531C23.4765 20.2531 21.175 16.7552 17.4236 18.2913C13.6722 19.8273 12.9853 24.694 16.0143 28.311C17.127 29.5784 20.554 32.0041 20.9418 32.5491" stroke="white" stroke-width="2.83889" stroke-miterlimit="10"/>
<path d="M26.1533 36.5792C26.1533 36.5792 29.5701 39.9681 33.2505 40.0822C35.8561 40.1633 43.3741 38.9162 43.1485 30.7874V18.8311C43.1485 18.8311 43.4375 13.9847 39.8914 11.5615C39.7393 11.4576 39.5847 11.3562 39.4377 11.2447L30.3609 4.32743C28.9287 3.22444 27.2588 2.47106 25.4841 2.12729C23.2662 1.71413 20.9698 1.63555 17.4896 3.95989C14.7014 5.80517 8.73214 10.1345 7.24426 11.7719" stroke="white" stroke-width="2.83889" stroke-miterlimit="10"/>
</g>
<defs>
<clipPath id="clip0_179_129">
<rect width="47.5589" height="52.0353" fill="white" transform="translate(0 0.482361)"/>
</clipPath>
</defs>
</svg>
