<svg width="41" height="41" viewBox="0 0 41 41" fill="none" xmlns="http://www.w3.org/2000/svg">
<rect x="0.223389" y="0.77124" width="40" height="40" rx="20" fill="white"/>
<g clip-path="url(#clip0_291_1265)">
<path d="M24.5 9H15.5C13.5109 9 11.6032 9.79018 10.1967 11.1967C8.79018 12.6032 8 14.5109 8 16.5L8 25.5C8 27.4891 8.79018 29.3968 10.1967 30.8033C11.6032 32.2098 13.5109 33 15.5 33H24.5C26.4891 33 28.3968 32.2098 29.8033 30.8033C31.2098 29.3968 32 27.4891 32 25.5V16.5C32 14.5109 31.2098 12.6032 29.8033 11.1967C28.3968 9.79018 26.4891 9 24.5 9ZM29.75 25.5C29.75 28.395 27.395 30.75 24.5 30.75H15.5C12.605 30.75 10.25 28.395 10.25 25.5V16.5C10.25 13.605 12.605 11.25 15.5 11.25H24.5C27.395 11.25 29.75 13.605 29.75 16.5V25.5Z" fill="url(#paint0_linear_291_1265)"/>
<path d="M20 15C18.4087 15 16.8826 15.6321 15.7574 16.7574C14.6321 17.8826 14 19.4087 14 21C14 22.5913 14.6321 24.1174 15.7574 25.2426C16.8826 26.3679 18.4087 27 20 27C21.5913 27 23.1174 26.3679 24.2426 25.2426C25.3679 24.1174 26 22.5913 26 21C26 19.4087 25.3679 17.8826 24.2426 16.7574C23.1174 15.6321 21.5913 15 20 15ZM20 24.75C19.0058 24.7488 18.0527 24.3533 17.3497 23.6503C16.6467 22.9473 16.2512 21.9942 16.25 21C16.25 18.9315 17.933 17.25 20 17.25C22.067 17.25 23.75 18.9315 23.75 21C23.75 23.067 22.067 24.75 20 24.75Z" fill="url(#paint1_linear_291_1265)"/>
<path d="M26.45 15.3495C26.8916 15.3495 27.2495 14.9915 27.2495 14.55C27.2495 14.1084 26.8916 13.7505 26.45 13.7505C26.0085 13.7505 25.6505 14.1084 25.6505 14.55C25.6505 14.9915 26.0085 15.3495 26.45 15.3495Z" fill="url(#paint2_linear_291_1265)"/>
</g>
<defs>
<linearGradient id="paint0_linear_291_1265" x1="10.196" y1="30.804" x2="29.804" y2="11.196" gradientUnits="userSpaceOnUse">
<stop stop-color="#FFC107"/>
<stop offset="0.507" stop-color="#F44336"/>
<stop offset="0.99" stop-color="#9C27B0"/>
</linearGradient>
<linearGradient id="paint1_linear_291_1265" x1="15.758" y1="25.242" x2="24.242" y2="16.758" gradientUnits="userSpaceOnUse">
<stop stop-color="#FFC107"/>
<stop offset="0.507" stop-color="#F44336"/>
<stop offset="0.99" stop-color="#9C27B0"/>
</linearGradient>
<linearGradient id="paint2_linear_291_1265" x1="25.8845" y1="15.1155" x2="27.0155" y2="13.9845" gradientUnits="userSpaceOnUse">
<stop stop-color="#FFC107"/>
<stop offset="0.507" stop-color="#F44336"/>
<stop offset="0.99" stop-color="#9C27B0"/>
</linearGradient>
<clipPath id="clip0_291_1265">
<rect width="24" height="24" fill="white" transform="translate(8 9)"/>
</clipPath>
</defs>
</svg>
