<svg width="48" height="48" viewBox="0 0 48 48" fill="none" xmlns="http://www.w3.org/2000/svg">
<rect width="48" height="48" rx="4" fill="#F6F6F6"/>
<g clip-path="url(#clip0_2907_640)">
<path d="M80.5036 13.3024V35.7917H75.3083V25.1276L69.4931 30.4053L63.7921 25.1314V35.7954H58.5968V13.3417L69.6092 23.663L80.5036 13.3024ZM87.038 13.3024C86.6172 13.534 86.27 13.8793 86.036 14.2988C85.7908 14.7161 85.6615 15.1913 85.6615 15.6753C85.6712 16.4016 85.9647 17.0952 86.4792 17.6079C86.9936 18.1207 87.6883 18.4118 88.4146 18.419C88.564 18.4196 88.7132 18.4064 88.8603 18.3797C89.0026 18.3554 89.145 18.3217 89.2873 18.2823C89.4252 18.246 89.5562 18.1871 89.675 18.1082L90.0234 17.8759C90.142 17.7967 90.2525 17.7057 90.353 17.6044C90.4507 17.5079 90.5414 17.4046 90.6245 17.2953C90.708 17.1833 90.7855 17.0671 90.8568 16.947C90.9328 16.8199 90.9913 16.6832 91.0309 16.5406C91.0703 16.3982 91.1021 16.2559 91.1283 16.1136C91.1808 15.8187 91.1808 15.5169 91.1283 15.2221C91.1034 15.0843 91.0709 14.948 91.0309 14.8138C90.9883 14.6782 90.9299 14.548 90.8568 14.4261C90.78 14.2969 90.7013 14.1752 90.6245 14.0515C90.5439 13.9385 90.453 13.8332 90.353 13.7369C90.2525 13.6356 90.142 13.5446 90.0234 13.4653C89.9072 13.3867 89.7911 13.3174 89.675 13.2518C89.5499 13.185 89.4204 13.1268 89.2873 13.0777C89.1499 13.0266 89.0063 12.9939 88.8603 12.9803C88.718 12.9672 88.57 12.9615 88.4146 12.9615C87.9342 12.9566 87.4605 13.0739 87.038 13.3024ZM86.0885 35.7917H90.7407V20.5148H86.0885V35.7917ZM94.6568 35.7917H100.2L103.729 30.7125L107.1 35.7917H112.687L106.793 27.6092L111.717 20.5148H106.473L103.884 24.6632L101.171 20.5148H95.6269L100.706 27.6092L94.6568 35.7917ZM116.642 35.7917H121.334V11.9839H116.642V35.7917ZM125.714 35.7917H130.445V29.394C130.445 28.721 130.465 28.1523 130.503 27.6878C130.545 27.211 130.649 26.7418 130.814 26.2925C130.951 25.8757 131.183 25.4966 131.492 25.1857C131.833 24.8828 132.237 24.6584 132.674 24.5283C133.258 24.3481 133.867 24.2627 134.477 24.2755C134.633 24.2755 134.794 24.2755 134.963 24.2942C135.131 24.3129 135.298 24.3279 135.466 24.3523C135.635 24.3766 135.802 24.4103 135.97 24.4496C136.139 24.489 136.3 24.5339 136.455 24.5864V20.2919C136.233 20.2322 136.006 20.1927 135.777 20.1739C135.506 20.1496 135.215 20.1365 134.904 20.1365C134.433 20.1339 133.964 20.1924 133.507 20.3106C133.079 20.4223 132.673 20.606 132.307 20.8538C131.942 21.1018 131.615 21.4022 131.337 21.7452C131.03 22.1275 130.757 22.5361 130.522 22.9663H130.445V20.5316H125.714V35.7917ZM23.7879 21.7902C23.3063 21.7902 22.8356 21.933 22.4352 22.2005C22.0348 22.468 21.7228 22.8483 21.5385 23.2932C21.3542 23.7381 21.306 24.2276 21.3999 24.6999C21.4939 25.1722 21.7258 25.606 22.0663 25.9465C22.4068 26.287 22.8406 26.5189 23.3129 26.6128C23.7852 26.7068 24.2747 26.6586 24.7196 26.4743C25.1645 26.29 25.5447 25.9779 25.8123 25.5776C26.0798 25.1772 26.2226 24.7064 26.2226 24.2249C26.2226 23.5792 25.9661 22.9599 25.5095 22.5033C25.0529 22.0467 24.4336 21.7902 23.7879 21.7902ZM16.2665 17.2111C15.7849 17.2111 15.3142 17.3538 14.9138 17.6214C14.5134 17.8889 14.2014 18.2692 14.0171 18.714C13.8328 19.1589 13.7846 19.6485 13.8785 20.1208C13.9725 20.593 14.2044 21.0269 14.5449 21.3674C14.8854 21.7079 15.3192 21.9398 15.7915 22.0337C16.2638 22.1276 16.7533 22.0794 17.1982 21.8951C17.6431 21.7109 18.0233 21.3988 18.2909 20.9984C18.5584 20.598 18.7012 20.1273 18.7012 19.6458C18.7012 19 18.4447 18.3808 17.9881 17.9242C17.5315 17.4676 16.9122 17.2111 16.2665 17.2111ZM6.4396 21.7284C5.95806 21.7284 5.48733 21.8712 5.08694 22.1387C4.68656 22.4062 4.37449 22.7865 4.19022 23.2314C4.00594 23.6763 3.95772 24.1658 4.05167 24.6381C4.14561 25.1104 4.37749 25.5442 4.718 25.8847C5.0585 26.2252 5.49232 26.4571 5.96461 26.551C6.4369 26.645 6.92644 26.5968 7.37132 26.4125C7.81621 26.2282 8.19646 25.9161 8.46399 25.5158C8.73152 25.1154 8.87431 24.6446 8.87431 24.1631C8.87431 23.5174 8.6178 22.8981 8.1612 22.4415C7.7046 21.9849 7.08533 21.7284 6.4396 21.7284ZM8.58964 13.0233C8.1081 13.0233 7.63737 13.1661 7.23698 13.4337C6.8366 13.7012 6.52453 14.0814 6.34026 14.5263C6.15598 14.9712 6.10776 15.4608 6.20171 15.933C6.29565 16.4053 6.52753 16.8392 6.86804 17.1797C7.20854 17.5202 7.64236 17.752 8.11465 17.846C8.58694 17.9399 9.07648 17.8917 9.52136 17.7074C9.96625 17.5232 10.3465 17.2111 10.614 16.8107C10.8816 16.4103 11.0244 15.9396 11.0244 15.4581C11.0244 15.1383 10.9614 14.8217 10.839 14.5263C10.7167 14.2309 10.5373 13.9625 10.3112 13.7365C10.0852 13.5104 9.81676 13.331 9.52136 13.2087C9.22597 13.0863 8.90937 13.0233 8.58964 13.0233ZM31.3711 16.9208C30.8895 16.9208 30.4188 17.0636 30.0184 17.3311C29.618 17.5986 29.306 17.9789 29.1217 18.4237C28.9374 18.8686 28.8892 19.3582 28.9831 19.8305C29.0771 20.3028 29.309 20.7366 29.6495 21.0771C29.99 21.4176 30.4238 21.6495 30.8961 21.7434C31.3684 21.8374 31.8579 21.7891 32.3028 21.6049C32.7477 21.4206 33.1279 21.1085 33.3955 20.7081C33.663 20.3077 33.8058 19.837 33.8058 19.3555C33.8058 18.7097 33.5493 18.0905 33.0927 17.6339C32.6361 17.1773 32.0168 16.9208 31.3711 16.9208ZM32.2944 6.12187C31.8129 6.12187 31.3421 6.26466 30.9417 6.53219C30.5414 6.79972 30.2293 7.17997 30.045 7.62486C29.8607 8.06974 29.8125 8.55928 29.9065 9.03157C30.0004 9.50386 30.2323 9.93768 30.5728 10.2782C30.9133 10.6187 31.3471 10.8506 31.8194 10.9445C32.2917 11.0385 32.7812 10.9902 33.2261 10.806C33.671 10.6217 34.0513 10.3096 34.3188 9.90924C34.5863 9.50885 34.7291 9.03812 34.7291 8.55658C34.7291 7.91085 34.4726 7.29158 34.016 6.83498C33.5594 6.37838 32.9401 6.12187 32.2944 6.12187ZM41.3291 21.0298C40.8475 21.0298 40.3768 21.1726 39.9764 21.4401C39.576 21.7077 39.264 22.0879 39.0797 22.5328C38.8954 22.9777 38.8472 23.4672 38.9411 23.9395C39.0351 24.4118 39.267 24.8456 39.6075 25.1861C39.948 25.5266 40.3818 25.7585 40.8541 25.8525C41.3264 25.9464 41.8159 25.8982 42.2608 25.7139C42.7057 25.5296 43.0859 25.2176 43.3534 24.8172C43.621 24.4168 43.7638 23.9461 43.7638 23.4645C43.7638 22.8188 43.5073 22.1995 43.0507 21.7429C42.5941 21.2863 41.9748 21.0298 41.3291 21.0298ZM38.8138 12.4034C38.3323 12.4034 37.8615 12.5462 37.4612 12.8138C37.0608 13.0813 36.7487 13.4615 36.5644 13.9064C36.3801 14.3513 36.3319 14.8408 36.4259 15.3131C36.5198 15.7854 36.7517 16.2192 37.0922 16.5597C37.4327 16.9002 37.8665 17.1321 38.3388 17.2261C38.8111 17.32 39.3006 17.2718 39.7455 17.0875C40.1904 16.9032 40.5707 16.5912 40.8382 16.1908C41.1057 15.7904 41.2485 15.3197 41.2485 14.8381C41.2485 14.1924 40.992 13.5731 40.5354 13.1165C40.0788 12.6599 39.4595 12.4034 38.8138 12.4034ZM16.4538 25.9536C15.9722 25.9536 15.5015 26.0963 15.1011 26.3639C14.7007 26.6314 14.3887 27.0117 14.2044 27.4565C14.0201 27.9014 13.9719 28.391 14.0658 28.8633C14.1598 29.3355 14.3917 29.7694 14.7322 30.1099C15.0727 30.4504 15.5065 30.6823 15.9788 30.7762C16.4511 30.8701 16.9406 30.8219 17.3855 30.6376C17.8304 30.4534 18.2106 30.1413 18.4782 29.7409C18.7457 29.3405 18.8885 28.8698 18.8885 28.3883C18.8885 27.7425 18.632 27.1233 18.1754 26.6667C17.7188 26.2101 17.0995 25.9536 16.4538 25.9536ZM8.99792 30.4484C8.51638 30.4484 8.04565 30.5912 7.64527 30.8587C7.24488 31.1263 6.93282 31.5065 6.74854 31.9514C6.56426 32.3963 6.51605 32.8858 6.60999 33.3581C6.70393 33.8304 6.93582 34.2642 7.27632 34.6047C7.61682 34.9452 8.05064 35.1771 8.52293 35.2711C8.99522 35.365 9.48476 35.3168 9.92965 35.1325C10.3745 34.9482 10.7548 34.6362 11.0223 34.2358C11.2898 33.8354 11.4326 33.3647 11.4326 32.8831C11.4326 32.2374 11.1761 31.6181 10.7195 31.1615C10.2629 30.7049 9.64365 30.4484 8.99792 30.4484ZM31.5584 25.6633C31.0768 25.6633 30.6061 25.8061 30.2057 26.0736C29.8053 26.3411 29.4933 26.7214 29.309 27.1662C29.1247 27.6111 29.0765 28.1007 29.1704 28.573C29.2644 29.0452 29.4963 29.4791 29.8368 29.8196C30.1773 30.1601 30.6111 30.392 31.0834 30.4859C31.5557 30.5798 32.0452 30.5316 32.4901 30.3474C32.935 30.1631 33.3152 29.851 33.5828 29.4506C33.8503 29.0502 33.9931 28.5795 33.9931 28.098C33.9931 27.4522 33.7366 26.833 33.28 26.3764C32.8234 25.9198 32.2041 25.6633 31.5584 25.6633ZM32.9368 36.3236C32.4552 36.3236 31.9845 36.4664 31.5841 36.7339C31.1837 37.0014 30.8717 37.3817 30.6874 37.8265C30.5031 38.2714 30.4549 38.761 30.5489 39.2333C30.6428 39.7056 30.8747 40.1394 31.2152 40.4799C31.5557 40.8204 31.9895 41.0523 32.4618 41.1462C32.9341 41.2402 33.4236 41.1919 33.8685 41.0077C34.3134 40.8234 34.6936 40.5113 34.9612 40.1109C35.2287 39.7105 35.3715 39.2398 35.3715 38.7583C35.3715 38.1125 35.115 37.4933 34.6584 37.0367C34.2018 36.5801 33.5825 36.3236 32.9368 36.3236ZM39.1771 29.7929C38.6952 29.7911 38.2236 29.9323 37.8219 30.1987C37.4203 30.4651 37.1068 30.8447 36.9211 31.2894C36.7354 31.7341 36.6858 32.2239 36.7787 32.6968C36.8716 33.1697 37.1027 33.6044 37.4429 33.9459C37.783 34.2873 38.2168 34.5201 38.6893 34.6148C39.1619 34.7096 39.6519 34.6619 40.0973 34.4779C40.5428 34.2939 40.9236 33.9818 41.1915 33.5812C41.4595 33.1807 41.6025 32.7096 41.6025 32.2276C41.6025 31.5835 41.3473 30.9657 40.8927 30.5093C40.4381 30.053 39.8212 29.7954 39.1771 29.7929ZM23.8197 12.7068C23.3382 12.7068 22.8674 12.8496 22.4671 13.1172C22.0667 13.3847 21.7546 13.7649 21.5703 14.2098C21.3861 14.6547 21.3378 15.1442 21.4318 15.6165C21.5257 16.0888 21.7576 16.5226 22.0981 16.8631C22.4386 17.2037 22.8724 17.4355 23.3447 17.5295C23.817 17.6234 24.3066 17.5752 24.7514 17.3909C25.1963 17.2067 25.5766 16.8946 25.8441 16.4942C26.1116 16.0938 26.2544 15.6231 26.2544 15.1415C26.2544 14.8217 26.1914 14.5049 26.0689 14.2094C25.9464 13.9139 25.7669 13.6454 25.5407 13.4193C25.3144 13.1932 25.0458 13.0139 24.7501 12.8916C24.4545 12.7694 24.1377 12.7066 23.8178 12.7068H23.8197ZM14.8675 6.47022C14.3859 6.47022 13.9152 6.61301 13.5148 6.88054C13.1144 7.14807 12.8024 7.52832 12.6181 7.97321C12.4338 8.41809 12.3856 8.90763 12.4795 9.37992C12.5735 9.85221 12.8054 10.286 13.1459 10.6265C13.4864 10.967 13.9202 11.1989 14.3925 11.2929C14.8648 11.3868 15.3543 11.3386 15.7992 11.1543C16.2441 10.97 16.6243 10.658 16.8918 10.2576C17.1594 9.8572 17.3022 9.38647 17.3022 8.90493C17.3022 8.25921 17.0457 7.63993 16.5891 7.18333C16.1325 6.72673 15.5132 6.47022 14.8675 6.47022ZM23.5594 3.99805C23.0778 3.99805 22.6071 4.14084 22.2067 4.40837C21.8063 4.6759 21.4943 5.05615 21.31 5.50104C21.1257 5.94592 21.0775 6.43546 21.1715 6.90775C21.2654 7.38004 21.4973 7.81386 21.8378 8.15436C22.1783 8.49486 22.6121 8.72675 23.0844 8.82069C23.5567 8.91464 24.0462 8.86642 24.4911 8.68214C24.936 8.49787 25.3162 8.1858 25.5838 7.78542C25.8513 7.38503 25.9941 6.9143 25.9941 6.43276C25.9941 5.78703 25.7376 5.16776 25.281 4.71116C24.8244 4.25456 24.2051 3.99805 23.5594 3.99805ZM24.2879 38.9118C23.8064 38.9118 23.3357 39.0546 22.9353 39.3222C22.5349 39.5897 22.2228 39.97 22.0385 40.4148C21.8543 40.8597 21.8061 41.3493 21.9 41.8216C21.9939 42.2938 22.2258 42.7277 22.5663 43.0682C22.9068 43.4087 23.3407 43.6406 23.8129 43.7345C24.2852 43.8284 24.7748 43.7802 25.2197 43.5959C25.6645 43.4117 26.0448 43.0996 26.3123 42.6992C26.5799 42.2988 26.7226 41.8281 26.7226 41.3466C26.7226 40.7008 26.4661 40.0816 26.0095 39.625C25.5529 39.1684 24.9337 38.9118 24.2879 38.9118ZM24.1306 30.2012C23.6491 30.2012 23.1783 30.344 22.778 30.6115C22.3776 30.879 22.0655 31.2593 21.8812 31.7042C21.6969 32.1491 21.6487 32.6386 21.7427 33.1109C21.8366 33.5832 22.0685 34.017 22.409 34.3575C22.7495 34.698 23.1833 34.9299 23.6556 35.0238C24.1279 35.1178 24.6174 35.0696 25.0623 34.8853C25.5072 34.701 25.8875 34.3889 26.155 33.9886C26.4225 33.5882 26.5653 33.1174 26.5653 32.6359C26.5653 31.9902 26.3088 31.3709 25.8522 30.9143C25.3956 30.4577 24.7763 30.2012 24.1306 30.2012ZM15.4949 36.6944C15.0133 36.6944 14.5426 36.8372 14.1422 37.1047C13.7418 37.3722 13.4298 37.7525 13.2455 38.1974C13.0612 38.6423 13.013 39.1318 13.1069 39.6041C13.2009 40.0764 13.4328 40.5102 13.7733 40.8507C14.1138 41.1912 14.5476 41.4231 15.0199 41.517C15.4922 41.611 15.9817 41.5628 16.4266 41.3785C16.8715 41.1942 17.2517 40.8821 17.5193 40.4818C17.7868 40.0814 17.9296 39.6106 17.9296 39.1291C17.9296 38.4834 17.6731 37.8641 17.2165 37.4075C16.7599 36.9509 16.1406 36.6944 15.4949 36.6944Z" fill="#EC2129"/>
</g>
<defs>
<clipPath id="clip0_2907_640">
<rect width="40" height="39.7881" fill="white" transform="translate(4 4)"/>
</clipPath>
</defs>
</svg>
