<svg width="48" height="48" viewBox="0 0 48 48" fill="none" xmlns="http://www.w3.org/2000/svg">
<rect width="48" height="48" rx="4" fill="#F6F6F6"/>
<g clip-path="url(#clip0_2907_558)">
<path d="M23.9999 4C12.9545 4 4 12.9545 4 24.0001C4 35.0463 12.9545 44 23.9999 44C35.0465 44 44 35.0463 44 24.0001C44 12.9552 35.0465 4.00096 23.9996 4.00096L23.9999 4ZM33.1717 32.8459C32.8135 33.4334 32.0444 33.6197 31.4569 33.2591C26.7612 30.3907 20.8498 29.7411 13.8881 31.3317C13.2172 31.4846 12.5485 31.0642 12.3956 30.3931C12.2421 29.722 12.6607 29.0533 13.3333 28.9004C20.9518 27.1598 27.4867 27.9093 32.7585 31.1311C33.346 31.4917 33.5323 32.2584 33.1717 32.8459ZM35.6196 27.4001C35.1683 28.1338 34.2082 28.3655 33.475 27.9141C28.0991 24.6096 19.9043 23.6526 13.5456 25.5828C12.7209 25.8319 11.8499 25.3672 11.5996 24.5439C11.3513 23.7193 11.8162 22.8499 12.6395 22.5991C19.9028 20.3952 28.9326 21.4628 35.1062 25.2566C35.8394 25.708 36.071 26.6681 35.6196 27.4003V27.4001ZM35.8298 21.7293C29.3839 17.9006 18.7491 17.5486 12.5948 19.4165C11.6066 19.7162 10.5615 19.1583 10.262 18.17C9.96249 17.1813 10.5199 16.1369 11.5089 15.8364C18.5735 13.6917 30.3177 14.1061 37.739 18.5118C38.6298 19.0394 38.9212 20.1874 38.3934 21.0752C37.8679 21.9641 36.7168 22.2571 35.8308 21.7293H35.8298Z" fill="#1ED760"/>
</g>
<defs>
<clipPath id="clip0_2907_558">
<rect width="40" height="40" fill="white" transform="translate(4 4)"/>
</clipPath>
</defs>
</svg>
