<svg width="48" height="48" viewBox="0 0 48 48" fill="none" xmlns="http://www.w3.org/2000/svg">
<rect width="48" height="48" rx="4" fill="#F6F6F6"/>
<g clip-path="url(#clip0_2907_636)">
<path d="M24 4C18.6969 4 13.6062 6.10844 9.85938 9.85781C6.10938 13.6072 4 18.6978 4 24C4 29.3022 6.10938 34.3928 9.85938 38.1422C13.6062 41.8916 18.6969 44 24 44C29.3031 44 34.3937 41.8916 38.1406 38.1422C41.8906 34.3928 44 29.3022 44 24C44 18.6978 41.8906 13.6072 38.1406 9.85781C34.3937 6.10844 29.3031 4 24 4Z" fill="url(#paint0_linear_2907_636)"/>
<path d="M13.0532 23.7881C18.8844 21.2481 22.7719 19.5734 24.7157 18.7643C30.2719 16.454 31.425 16.0528 32.1782 16.0392C32.3438 16.0365 32.7125 16.0774 32.9532 16.2721C33.1532 16.4362 33.2094 16.6581 33.2375 16.8137C33.2625 16.9693 33.2969 17.324 33.2688 17.6009C32.9688 20.7634 31.6657 28.4378 31.0032 31.9799C30.725 33.4788 30.1719 33.9813 29.6375 34.0303C28.475 34.1372 27.5938 33.2628 26.4688 32.5256C24.7094 31.3715 23.7157 30.6534 22.0063 29.5274C20.0313 28.2262 21.3125 27.5109 22.4375 26.3421C22.7313 26.0362 27.85 21.3815 27.9469 20.9593C27.9594 20.9065 27.9719 20.7096 27.8532 20.6059C27.7375 20.5018 27.5657 20.5374 27.4407 20.5656C27.2625 20.6056 24.4532 22.4643 19.0032 26.1415C18.2063 26.6896 17.4844 26.9568 16.8344 26.9428C16.1219 26.9274 14.7469 26.539 13.725 26.2071C12.475 25.7999 11.4782 25.5846 11.5657 24.8931C11.6094 24.5331 12.1063 24.1646 13.0532 23.7881Z" fill="white"/>
</g>
<defs>
<linearGradient id="paint0_linear_2907_636" x1="2004" y1="4" x2="2004" y2="4004" gradientUnits="userSpaceOnUse">
<stop stop-color="#2AABEE"/>
<stop offset="1" stop-color="#229ED9"/>
</linearGradient>
<clipPath id="clip0_2907_636">
<rect width="40" height="40" fill="white" transform="translate(4 4)"/>
</clipPath>
</defs>
</svg>
