<svg width="41" height="41" viewBox="0 0 41 41" fill="none" xmlns="http://www.w3.org/2000/svg">
<rect x="0.223389" y="0.77124" width="40" height="40" rx="20" fill="white"/>
<path d="M24.5064 10.4746L20.8791 10.4757V25.4509C20.8791 26.7401 20.1095 27.8901 18.9184 28.3835C17.7273 28.8768 16.3713 28.6067 15.4597 27.6951C14.5481 26.7835 14.2779 25.426 14.7713 24.235C15.2647 23.0439 16.4147 22.276 17.7039 22.276H18.8769V18.6483H17.7039C14.9577 18.6483 12.4705 20.3107 11.4196 22.8479C10.3687 25.385 10.952 28.3191 12.8939 30.2609C14.8357 32.2028 17.7701 32.7861 20.3073 31.7352C22.8444 30.6842 24.5064 28.1971 24.5064 25.4509V17.1472C25.494 17.7356 26.6607 18.1675 28.0955 18.1675H29.9085V14.5388H28.0955C26.0555 14.5388 25.5024 13.7091 25.018 12.656C24.5341 11.604 24.5064 10.4746 24.5064 10.4746Z" fill="url(#paint0_linear_291_1269)"/>
<path d="M23.7808 9.74878L20.1535 9.74984V24.7251C20.1535 26.0143 19.3839 27.1643 18.1928 27.6576C17.0018 28.151 15.6457 27.8808 14.7341 26.9692C13.8225 26.0576 13.1891 24.7002 13.6824 23.5091C14.1758 22.3181 15.7094 21.1111 16.9783 21.3393L18.1514 21.5502V17.9225H16.9783C14.2321 17.9225 11.7449 19.5849 10.694 22.122C9.64311 24.6592 10.2264 27.5932 12.1683 29.5351C14.1101 31.4769 16.6799 31.6294 19.2171 30.5784C21.7542 29.5275 23.0598 27.2033 23.1842 24.4599L23.582 15.6921C24.5696 16.2806 25.9363 17.0039 27.3582 17.1956L29.1829 17.4417L28.6087 15.6444L29.1829 14.9379L29.1829 13.813H27.3699C25.3299 13.813 24.7768 12.9832 24.2925 11.9302C23.8086 10.8782 23.7808 9.74878 23.7808 9.74878Z" fill="url(#paint1_linear_291_1269)"/>
<path d="M23.9416 10.8743L21.2786 10.875V25.8501C21.2786 27.1393 20.5089 28.2893 19.3179 28.7827C18.1269 29.276 16.7707 29.0058 15.8591 28.0942C15.666 27.9011 15.5035 27.687 15.3691 27.4596C15.1416 27.3251 14.9275 27.1626 14.7341 26.9692C13.8226 26.0577 13.5523 24.7 14.0457 23.509C14.539 22.318 15.6891 21.5502 16.9782 21.5502H18.1512V19.0475H18.1032C15.3571 19.0475 12.8701 20.7101 11.8192 23.2472C10.871 25.5363 11.2535 28.1482 12.7636 30.0633C14.6789 31.5743 17.2918 31.9576 19.5816 31.0092C22.1187 29.9583 23.7808 27.4713 23.7808 24.7252V16.4215C24.7684 17.0099 25.9348 17.4417 27.3696 17.4417H29.1827V14.938H28.4946C26.753 14.938 26.0959 14.3324 25.6393 13.5003C24.9287 13.1654 24.5968 12.5921 24.2924 11.9304C24.1268 11.5704 24.0175 11.2041 23.9416 10.8743Z" fill="url(#paint2_linear_291_1269)"/>
<path d="M22.0455 11.3059H21.8588V11.6809H22.0455V11.3059ZM22.0455 12.243H21.8588V12.618H22.0455V12.243ZM22.0455 13.1813H21.8588V13.5563H22.0455V13.1813ZM22.0455 14.1184H21.8588V14.4934H22.0455V14.1184ZM22.0455 15.0555H21.8588V15.4305H22.0455V15.0555ZM22.0455 15.9937H21.8588V16.3687H22.0455V15.9937ZM22.0455 16.9309H21.8588V17.3059H22.0455V16.9309ZM22.0455 17.868H21.8588V18.243H22.0455V17.868ZM22.0455 18.8062H21.8588V19.1812H22.0455V18.8062ZM22.0455 19.7433H21.8588V20.1183H22.0455V19.7433ZM22.0455 20.6805H21.8588V21.0554H22.0455V20.6805ZM22.0455 21.6187H21.8588V21.9937H22.0455V21.6187Z" fill="#453A4B"/>
<defs>
<linearGradient id="paint0_linear_291_1269" x1="19.9996" y1="31.3121" x2="26.8147" y2="16.6755" gradientUnits="userSpaceOnUse">
<stop stop-color="#F40A1B"/>
<stop offset="1" stop-color="#FF585B"/>
</linearGradient>
<linearGradient id="paint1_linear_291_1269" x1="19.9996" y1="9.74964" x2="16.9956" y2="31.3119" gradientUnits="userSpaceOnUse">
<stop stop-color="#00FDFF"/>
<stop offset="1" stop-color="#00D4ED"/>
</linearGradient>
<linearGradient id="paint2_linear_291_1269" x1="23.9901" y1="5.69187" x2="19.9998" y2="32.2495" gradientUnits="userSpaceOnUse">
<stop stop-color="#BCA6AE"/>
<stop offset="1" stop-color="#322A3D"/>
</linearGradient>
</defs>
</svg>
