<svg width="41" height="41" viewBox="0 0 41 41" fill="none" xmlns="http://www.w3.org/2000/svg">
<rect x="0.223389" y="0.77124" width="40" height="40" rx="20" fill="white"/>
<path d="M32 14.3085C31.0972 14.7023 30.1424 14.964 29.165 15.0855C30.195 14.4745 30.9651 13.5069 31.3295 12.366C30.365 12.938 29.3098 13.3409 28.2095 13.557C27.5349 12.8367 26.6592 12.3359 25.6962 12.1197C24.7333 11.9036 23.7276 11.982 22.8098 12.3448C21.892 12.7076 21.1045 13.3381 20.5496 14.1542C19.9948 14.9704 19.6982 15.9346 19.6985 16.9215C19.6985 17.3115 19.7315 17.6865 19.8125 18.0435C17.8551 17.9476 15.94 17.4396 14.1925 16.5527C12.4449 15.6659 10.9041 14.4202 9.671 12.897C9.03923 13.9798 8.84391 15.2627 9.12482 16.4845C9.40574 17.7062 10.1418 18.7749 11.183 19.473C10.4041 19.4522 9.64171 19.2443 8.96 18.867V18.921C8.9613 20.0572 9.354 21.1582 10.072 22.0387C10.79 22.9193 11.7894 23.5256 12.902 23.7555C12.4811 23.8665 12.0473 23.921 11.612 23.9175C11.2994 23.9231 10.9871 23.8949 10.6805 23.8335C10.9984 24.8101 11.6112 25.6641 12.4346 26.2779C13.2579 26.8917 14.2513 27.2352 15.278 27.261C13.5364 28.6231 11.3885 29.362 9.1775 29.3595C8.774 29.3595 8.387 29.3415 8 29.292C10.2498 30.7419 12.8715 31.5088 15.548 31.5C24.602 31.5 29.552 24 29.552 17.499C29.552 17.2815 29.5445 17.0715 29.534 16.863C30.5044 16.1685 31.3401 15.3029 32 14.3085Z" fill="#03A9F4"/>
</svg>
