<svg width="48" height="48" viewBox="0 0 48 48" fill="none" xmlns="http://www.w3.org/2000/svg">
<rect width="48" height="48" rx="4" fill="#F6F6F6"/>
<g clip-path="url(#clip0_2907_632)">
<path d="M35.287 10.3281H11.902C7.31387 10.3281 3.59448 14.0475 3.59448 18.6356V30.3256C3.59448 34.9138 7.31387 38.6331 11.902 38.6331H35.287C39.8751 38.6331 43.5945 34.9138 43.5945 30.3256V18.6356C43.5945 14.0475 39.8751 10.3281 35.287 10.3281ZM29.6687 25.0494L18.7308 30.2661C18.4393 30.4051 18.1026 30.1926 18.1026 29.8698V19.1102C18.1026 18.7828 18.4482 18.5705 18.7402 18.7186L29.6782 24.2614C30.0034 24.4261 29.9977 24.8925 29.6687 25.0494Z" fill="#F61C0D"/>
</g>
<defs>
<clipPath id="clip0_2907_632">
<rect width="40" height="40" fill="white" transform="translate(3.59448 4.48047)"/>
</clipPath>
</defs>
</svg>
