<svg width="41" height="41" viewBox="0 0 41 41" fill="none" xmlns="http://www.w3.org/2000/svg">
<rect x="0.223389" y="0.77124" width="40" height="40" rx="20" fill="white"/>
<g clip-path="url(#clip0_291_1267)">
<path d="M23.9869 20.1832C21.7864 19.0072 19.6794 17.9261 17.5256 16.7974V23.5499C19.7921 22.3178 22.1809 21.1895 23.9963 20.1832H23.9869Z" fill="white"/>
<path d="M23.9869 20.1832C21.7864 19.0072 17.5256 16.7974 17.5256 16.7974L23.2064 20.6155C23.2064 20.6155 22.1716 21.1895 23.9869 20.1832Z" fill="#E8E0E0"/>
<path d="M17.9397 28.8357C13.369 28.7516 11.8079 28.6759 10.8483 28.4782C10.1991 28.3468 9.63498 28.0552 9.22132 27.6321C8.90162 27.312 8.64737 26.8235 8.45012 26.1458C8.28092 25.5812 8.21502 25.1115 8.12106 23.964C7.97724 21.3743 7.94296 19.2571 8.12106 16.8914C8.268 15.5849 8.33925 14.0341 9.31528 13.1293C9.77613 12.7058 10.3122 12.4333 10.9142 12.3207C11.8546 12.1421 15.8612 12.001 20.0089 12.001C24.1472 12.001 28.1626 12.1421 29.1039 12.3207C29.856 12.4618 30.5613 12.8848 30.9754 13.4303C31.8659 14.8311 31.8815 16.573 31.9719 17.9355C32.0093 18.5847 32.0093 22.2711 31.9719 22.9203C31.8312 25.0736 31.7181 25.8355 31.3984 26.6254C31.2007 27.1241 31.0319 27.3872 30.7398 27.6789C30.2817 28.1277 29.6977 28.4262 29.0656 28.5347C25.1103 28.8321 21.7516 28.8967 17.9397 28.8357ZM23.9967 20.1832C21.7962 19.0073 19.6892 17.9168 17.5354 16.7881V23.541C19.8018 22.309 22.1911 21.1802 24.006 20.1739L23.9967 20.1832Z" fill="#CD201F"/>
</g>
<defs>
<clipPath id="clip0_291_1267">
<rect width="24" height="16.8576" fill="white" transform="translate(8 12)"/>
</clipPath>
</defs>
</svg>
